# xmcd CD database file
#
# Track frame offsets:
#	150
#	19197
#	31077
#	44995
#	58802
#	73785
#	83545
#	96777
#	108992
#	116902
#	131872
#	145847
#	161267
#	178684
#	190365
#	197827
#	207757
#	217567
#	229309
#	243477
#
# Disc length: 3377 seconds
#
# Revision: 0
# Processed by: cddbd v1.4PL0 Copyright (c) Steve Scherf et al.
# Submitted via: CDex 1.50
#
DISCID=230d2f14
DTITLE=Chico Buarque - 20 Preferidas
DYEAR=1995
DGENRE=Blues
TTITLE0=Quem te viu, quem te vê
TTITLE1=Carolina
TTITLE2=Januária
TTITLE3=Olê olá
TTITLE4=Retrato em branco e preto
TTITLE5=A banda
TTITLE6=Noite dos mascarados
TTITLE7=A televisão
TTITLE8=Tem mais samba
TTITLE9=Sabiá
TTITLE10=Benvinda
TTITLE11=Onde é que você estava
TTITLE12=Umas e outras
TTITLE13=Pedro pedreiro
TTITLE14=Madalena foi pro mar
TTITLE15=Sonho de um carnaval
TTITLE16=Ela e sua janela
TTITLE17=Logo eu
TTITLE18=Ela desatinou
TTITLE19=Desencontro
EXTD=YEAR: 1995
EXTT0=
EXTT1=
EXTT2=
EXTT3=
EXTT4=
EXTT5=
EXTT6=
EXTT7=
EXTT8=
EXTT9=
EXTT10=
EXTT11=
EXTT12=
EXTT13=
EXTT14=
EXTT15=
EXTT16=
EXTT17=
EXTT18=
EXTT19=
PLAYORDER=
